<?xml version="1.0" encoding="utf-8"?>
<svg xmlns="http://www.w3.org/2000/svg" xmlns:xlink="http://www.w3.org/1999/xlink" style="margin: auto; background: rgb(255, 255, 255); display: block; shape-rendering: auto;" width="200px" height="200px" viewBox="0 0 100 100" preserveAspectRatio="xMidYMid">
<g transform="translate(50 50)">
<g>
<animateTransform attributeName="transform" type="rotate" values="0;22.5" keyTimes="0;1" dur="0.2s" repeatCount="indefinite"></animateTransform><path d="M29.491524206117255 -5.5 L37.491524206117255 -5.5 L37.491524206117255 5.5 L29.491524206117255 5.5 A30 30 0 0 1 29.3513744746009 6.204580280063004 L29.3513744746009 6.204580280063004 L36.74241073469119 9.266047738983723 L32.53289297867521 19.428722596607873 L25.141856718584915 16.367255137687156 A30 30 0 0 1 24.742744050198738 16.964569457146712 L24.742744050198738 16.964569457146712 L30.399598299691117 22.621423706639092 L22.621423706639096 30.399598299691114 L16.964569457146716 24.742744050198734 A30 30 0 0 1 16.367255137687156 25.14185671858491 L16.367255137687156 25.14185671858491 L19.428722596607873 32.53289297867521 L9.266047738983724 36.74241073469119 L6.204580280063006 29.3513744746009 A30 30 0 0 1 5.5 29.491524206117255 L5.5 29.491524206117255 L5.5 37.491524206117255 L-5.499999999999997 37.491524206117255 L-5.499999999999997 29.491524206117255 A30 30 0 0 1 -6.204580280063003 29.3513744746009 L-6.204580280063003 29.3513744746009 L-9.26604773898372 36.74241073469119 L-19.428722596607876 32.53289297867521 L-16.36725513768716 25.14185671858491 A30 30 0 0 1 -16.964569457146705 24.742744050198738 L-16.964569457146705 24.742744050198738 L-22.621423706639085 30.399598299691117 L-30.399598299691117 22.621423706639092 L-24.742744050198738 16.964569457146712 A30 30 0 0 1 -25.14185671858491 16.367255137687167 L-25.14185671858491 16.367255137687167 L-32.53289297867521 19.428722596607887 L-36.74241073469119 9.26604773898372 L-29.3513744746009 6.204580280063001 A30 30 0 0 1 -29.491524206117255 5.500000000000009 L-29.491524206117255 5.500000000000009 L-37.491524206117255 5.50000000000001 L-37.491524206117255 -5.500000000000001 L-29.491524206117255 -5.500000000000002 A30 30 0 0 1 -29.351374474600902 -6.204580280062994 L-29.351374474600902 -6.204580280062994 L-36.7424107346912 -9.266047738983712 L-32.53289297867521 -19.428722596607876 L-25.14185671858491 -16.36725513768716 A30 30 0 0 1 -24.742744050198738 -16.964569457146705 L-24.742744050198738 -16.964569457146705 L-30.399598299691117 -22.621423706639085 L-22.621423706639092 -30.399598299691117 L-16.964569457146712 -24.742744050198738 A30 30 0 0 1 -16.367255137687177 -25.1418567185849 L-16.367255137687177 -25.1418567185849 L-19.4287225966079 -32.53289297867519 L-9.266047738983739 -36.74241073469119 L-6.204580280063016 -29.3513744746009 A30 30 0 0 1 -5.500000000000011 -29.491524206117255 L-5.500000000000011 -29.491524206117255 L-5.500000000000012 -37.491524206117255 L5.499999999999998 -37.491524206117255 L5.5 -29.491524206117255 A30 30 0 0 1 6.204580280063005 -29.3513744746009 L6.204580280063005 -29.3513744746009 L9.266047738983724 -36.74241073469119 L19.428722596607887 -32.5328929786752 L16.367255137687167 -25.141856718584908 A30 30 0 0 1 16.964569457146702 -24.74274405019874 L16.964569457146702 -24.74274405019874 L22.62142370663908 -30.39959829969112 L30.399598299691117 -22.6214237066391 L24.742744050198738 -16.964569457146716 A30 30 0 0 1 25.1418567185849 -16.36725513768718 L25.1418567185849 -16.36725513768718 L32.53289297867519 -19.428722596607905 L36.74241073469119 -9.26604773898374 L29.351374474600895 -6.204580280063017 A30 30 0 0 1 29.491524206117255 -5.500000000000013 M0 -22A22 22 0 1 0 0 22 A22 22 0 1 0 0 -22" fill="#000000"></path></g></g>
<!-- [ldio] generated by https://loading.io/ --></svg>